<svg fill="#FFFFFF" xmlns="http://www.w3.org/2000/svg" xmlns:xlink="http://www.w3.org/1999/xlink" version="1.1" x="0px" y="0px" viewBox="0 0 90 90" enable-background="new 0 0 90 90" xml:space="preserve"><g><path fill-rule="evenodd" clip-rule="evenodd" fill="#FFFFFF" d="M515.65,321.4c1.333-1.301,3-1.983,5-2.051   c2,0.067,3.649,0.767,4.949,2.101c1.301,1.366,1.983,3.066,2.051,5.1c-0.067,1.9-0.75,3.5-2.051,4.8   c-1.3,1.267-2.949,1.934-4.949,2c-2-0.066-3.667-0.733-5-2c-1.367-1.333-2.067-2.966-2.101-4.899   C513.583,324.417,514.283,322.733,515.65,321.4z M535.15,321.4c1.333-1.301,3-1.983,5-2.051c2,0.067,3.649,0.767,4.949,2.101   c1.301,1.366,1.983,3.066,2.051,5.1c-0.067,1.9-0.75,3.5-2.051,4.8c-1.3,1.267-2.949,1.934-4.949,2c-2-0.066-3.667-0.733-5-2   c-1.367-1.333-2.067-2.966-2.101-4.899C533.083,324.417,533.783,322.733,535.15,321.4z M554.65,321.4c1.333-1.301,3-1.983,5-2.051   c2,0.067,3.649,0.767,4.949,2.101c1.301,1.366,1.983,3.066,2.051,5.1c-0.067,1.9-0.75,3.5-2.051,4.8   c-1.3,1.267-2.949,1.934-4.949,2c-2-0.066-3.667-0.733-5-2c-1.367-1.333-2.067-2.966-2.101-4.899   C552.583,324.417,553.283,322.733,554.65,321.4z"></path></g><g><path fill="#FFFFFF" d="M173.75-150.225c-2.732,0-5.205-1.028-7.151-2.974c-1.945-1.945-2.974-4.4-2.974-7.101   c0-2.734,1.028-5.207,2.975-7.152c1.945-1.945,4.418-2.974,7.15-2.974c2.766,0,5.255,1.028,7.201,2.974   c1.945,1.945,2.974,4.417,2.974,7.151c0,2.701-1.028,5.156-2.975,7.102C179.005-151.253,176.516-150.225,173.75-150.225z    M173.75-163.775c-0.983,0-1.739,0.316-2.448,1.026c-0.71,0.709-1.026,1.465-1.026,2.449c0,0.95,0.316,1.689,1.025,2.398   c0.71,0.71,1.466,1.026,2.449,1.026c1.019,0,1.789-0.316,2.498-1.026c0.71-0.709,1.026-1.449,1.026-2.399   c0-0.984-0.316-1.74-1.025-2.449C175.539-163.458,174.769-163.775,173.75-163.775z M144.2-150.225   c-2.732,0-5.205-1.028-7.151-2.974c-1.945-1.945-2.974-4.4-2.974-7.101c0-2.734,1.028-5.207,2.975-7.152   c1.945-1.945,4.418-2.974,7.15-2.974s5.205,1.028,7.151,2.974c1.945,1.946,2.974,4.419,2.974,7.151   c0,2.699-1.028,5.155-2.974,7.101C149.405-151.253,146.933-150.225,144.2-150.225z M144.2-163.775   c-0.983,0-1.739,0.316-2.448,1.026c-0.71,0.709-1.026,1.465-1.026,2.449c0,0.95,0.316,1.689,1.025,2.398   c0.71,0.71,1.466,1.026,2.449,1.026s1.739-0.316,2.448-1.026c0.71-0.71,1.026-1.45,1.026-2.399c0-0.984-0.316-1.739-1.026-2.45   C145.939-163.458,145.184-163.775,144.2-163.775z M128.147-170.875c-1.76,0-3.229-1.382-3.318-3.159   c-0.091-1.834,1.321-3.395,3.155-3.487l5.378-0.269l-1.778-4.522c-0.018-0.041-0.034-0.083-0.05-0.125l-3.792-9.455   c-0.025-0.058-0.048-0.117-0.069-0.176l-3.72-9.522c-0.4-1.023-0.269-2.178,0.351-3.085c0.62-0.907,1.647-1.45,2.746-1.45h50.9   c0.995,0,1.938,0.446,2.569,1.215c0.632,0.769,0.886,1.78,0.692,2.756l-1.889,9.54c-0.009,0.049-0.019,0.097-0.029,0.146   l-1.924,9.47c-0.008,0.042-0.016,0.084-0.025,0.125l-0.98,4.848h1.415l7.162-35.433c0.313-1.551,1.677-2.667,3.259-2.667H201   c1.836,0,3.325,1.489,3.325,3.325s-1.489,3.325-3.325,3.325h-10.079l-7.162,35.433c-0.313,1.551-1.677,2.667-3.259,2.667h-8.132   c-0.044,0-0.088,0-0.13,0h-34.005l-9.917,0.496C128.26-170.876,128.204-170.875,128.147-170.875z M140.416-178.025h29.164   l0.455-2.25h-30.504L140.416-178.025z M136.899-186.925h34.482l0.6-2.95h-36.266L136.899-186.925z M133.07-196.525h40.248   l0.584-2.949h-41.984L133.07-196.525z"></path></g><g><path fill="#FFFFFF" d="M268.1-139.875c-0.85,0-1.699-0.324-2.349-0.971c-1.3-1.297-1.303-3.402-0.005-4.702l14.96-14.997   l-71.665-0.18c-1.836-0.005-3.321-1.497-3.316-3.333c0.005-1.833,1.493-3.317,3.325-3.317c0.003,0,0.006,0,0.009,0l71.594,0.18   l-14.904-14.904c-1.298-1.298-1.298-3.404,0-4.702c1.299-1.299,3.404-1.299,4.703,0l20.601,20.6   c0.319,0.319,0.56,0.688,0.723,1.081c0.162,0.394,0.252,0.826,0.251,1.278c0,0.001,0,0.003,0,0.004c-0.001,0-0.001,0.002,0,0.004   c0,0,0,0,0,0.001c-0.001,0.002-0.001,0.005,0,0.005c0,0.001,0,0.003,0,0.004c0,0,0,0,0,0c-0.004,0.431-0.09,0.843-0.242,1.22   c-0.162,0.4-0.405,0.776-0.729,1.101l-20.601,20.65C269.804-140.201,268.952-139.875,268.1-139.875z"></path></g><g><path fill="#FFFFFF" d="M-0.7-161.775h-40.65c-5.4,0-8.625-3.225-8.625-8.625V-211c0-5.37,3.225-8.575,8.625-8.575h1.525V-229.8   c0-5.168,1.846-9.614,5.487-13.214c3.619-3.619,8.061-5.461,13.188-5.461c4.965,0,9.304,1.74,12.896,5.171   c1.328,1.268,1.376,3.373,0.108,4.701c-1.268,1.328-3.373,1.376-4.701,0.108c-2.346-2.24-5.062-3.329-8.304-3.329   c-3.346,0-6.126,1.153-8.499,3.526c-2.377,2.351-3.526,5.126-3.526,8.499v10.225H-0.7c5.37,0,8.575,3.206,8.575,8.575v40.6   C7.875-165,4.669-161.775-0.7-161.775z M-41.35-212.925c-1.698,0-1.975,0.27-1.975,1.925v40.6c0,1.698,0.277,1.975,1.975,1.975   H-0.7c1.655,0,1.925-0.277,1.925-1.975V-211c0-1.655-0.27-1.925-1.925-1.925H-41.35z M-9.9-174.725h-22.6   c-1.147,0-2.213-0.591-2.82-1.564s-0.671-2.189-0.167-3.22l6.292-12.886c-1.168-1.646-1.779-3.574-1.779-5.655   c0-2.65,0.966-5.043,2.793-6.92c0.021-0.021,0.041-0.041,0.062-0.062c1.909-1.86,4.302-2.844,6.92-2.844   c2.667,0,5.071,0.994,6.951,2.874s2.874,4.284,2.874,6.951c0,2.074-0.616,3.995-1.796,5.635l6.263,12.914   c0.5,1.03,0.434,2.245-0.174,3.216S-8.755-174.725-9.9-174.725z M-27.176-181.375h11.969l-4.934-10.174   c-0.618-1.274-0.361-2.8,0.641-3.802c0.194-0.194,0.405-0.39,0.632-0.584c0.583-0.616,0.844-1.273,0.844-2.114   c0-0.915-0.286-1.608-0.926-2.249c-0.641-0.64-1.334-0.926-2.249-0.926c-0.883,0-1.578,0.286-2.247,0.925   c-0.606,0.636-0.877,1.332-0.877,2.25c0,0.848,0.25,1.509,0.806,2.123l0.448,0.374c1.176,0.98,1.53,2.637,0.858,4.013   L-27.176-181.375z"></path></g><g><path fill="#FFFFFF" d="M614.9-8.125h-50.45c-1.836,0-3.325-1.489-3.325-3.325s1.489-3.325,3.325-3.325h20.925v-12.199H550.7   c-1.836,0-3.325-1.489-3.325-3.325v-48.05c0-1.836,1.489-3.325,3.325-3.325H626.6c1.836,0,3.325,1.489,3.325,3.325v48.05   c0,1.836-1.489,3.325-3.325,3.325h-34.574v12.199H614.9c1.836,0,3.325,1.489,3.325,3.325S616.736-8.125,614.9-8.125z M588.7-33.625   h34.574v-41.4h-69.249v41.4H588.7z M583.15-39.875H561.35c-1.836,0-3.325-1.489-3.325-3.325v-23.95   c0-1.836,1.489-3.325,3.325-3.325h21.801c1.836,0,3.325,1.489,3.325,3.325v23.95C586.476-41.364,584.986-39.875,583.15-39.875z    M564.675-46.525h15.15v-17.299h-15.15V-46.525z M615.2-41.525h-20.75c-1.836,0-3.325-1.489-3.325-3.325s1.489-3.325,3.325-3.325   h20.75c1.836,0,3.325,1.489,3.325,3.325S617.036-41.525,615.2-41.525z M615.2-52.425h-20.75c-1.836,0-3.325-1.489-3.325-3.325   s1.489-3.325,3.325-3.325h20.75c1.836,0,3.325,1.489,3.325,3.325S617.036-52.425,615.2-52.425z M615.2-63.375h-20.75   c-1.836,0-3.325-1.489-3.325-3.325s1.489-3.325,3.325-3.325h20.75c1.836,0,3.325,1.489,3.325,3.325S617.036-63.375,615.2-63.375z"></path></g><g><path fill="#FFFFFF" d="M618.101,110.825c-1.042,0-2.048-0.49-2.687-1.365c-0.857-1.174-0.853-2.768,0.012-3.937   c3.565-4.823,5.299-10.376,5.299-16.974c0-1.113-0.047-2.208-0.142-3.274H575.7c-1.836,0-3.325-1.489-3.325-3.325V35   c0-1.836,1.489-3.325,3.325-3.325h72.75c1.836,0,3.325,1.489,3.325,3.325v46.95c0,1.836-1.489,3.325-3.325,3.325h-9.344   c-1.017,6.397-3.646,12.087-7.839,16.946c-3.555,4.078-7.622,6.91-12.101,8.428C618.816,110.768,618.456,110.825,618.101,110.825z    M579.025,78.625H623.5c1.616,0,2.998,1.162,3.275,2.754c0.397,2.279,0.6,4.692,0.6,7.171c0,3.255-0.371,6.356-1.11,9.29   c3.936-4.57,6.088-9.855,6.57-16.144c0.133-1.733,1.578-3.071,3.315-3.071h8.975v-40.3h-66.1V78.625z M632.3,70.976h-38.55   c-1.836,0-3.325-1.489-3.325-3.325s1.489-3.325,3.325-3.325h38.55c1.836,0,3.325,1.489,3.325,3.325S634.136,70.976,632.3,70.976z    M632.3,61.226h-38.55c-1.836,0-3.325-1.489-3.325-3.325s1.489-3.325,3.325-3.325h38.55c1.836,0,3.325,1.489,3.325,3.325   S634.136,61.226,632.3,61.226z M632.3,51.476h-38.55c-1.836,0-3.325-1.489-3.325-3.325s1.489-3.325,3.325-3.325h38.55   c1.836,0,3.325,1.489,3.325,3.325S634.136,51.476,632.3,51.476z"></path></g><g><path d="M82.4,84.875H7.6c-1.836,0-3.325-1.489-3.325-3.325V6.9c0-1.836,1.489-3.325,3.325-3.325H82.4   c1.836,0,3.325,1.489,3.325,3.325V81.55C85.726,83.386,84.236,84.875,82.4,84.875z M10.925,78.225h68.15V10.226h-68.15V78.225z    M44.5,71.625H19.55c-1.836,0-3.325-1.489-3.325-3.325V43.4c0-1.836,1.489-3.325,3.325-3.325H44.5c1.836,0,3.325,1.489,3.325,3.325   V68.3C47.825,70.136,46.336,71.625,44.5,71.625z M22.875,64.975h18.3V46.726h-18.3V64.975z M70.75,42.226   c-1.836,0-3.325-1.489-3.325-3.325V26.2l-12.2,11.928c-1.312,1.281-3.418,1.259-4.702-0.054c-1.283-1.313-1.26-3.418,0.054-4.702   l12.017-11.747H51.8c-1.836,0-3.325-1.489-3.325-3.325s1.489-3.325,3.325-3.325h18.95c0.002,0,0.003,0,0.005,0c0,0,0.003,0,0.005,0   c0,0,0.003,0,0.005,0c0.001,0,0.003,0,0.005,0l0,0c0.829,0.005,1.585,0.313,2.165,0.818c0.165,0.145,0.317,0.306,0.452,0.481   c0.384,0.499,0.63,1.11,0.679,1.776c0.007,0.092,0.011,0.184,0.01,0.274V38.9C74.075,40.736,72.586,42.226,70.75,42.226z"></path></g><g><path fill="#FFFFFF" d="M399.283,96.216c-3.406,0-6.839-0.488-10.29-1.467c-9.987-2.916-17.551-8.933-22.503-17.891   c-5.05-9.044-6.209-18.623-3.44-28.459c2.917-9.883,8.868-17.435,17.7-22.486c0.325-0.186,0.678-0.315,1.043-0.383   c1.537-0.49,3.238,0.197,3.98,1.683c0.821,1.642,0.156,3.64-1.486,4.461c-0.224,0.112-0.453,0.203-0.686,0.273   c-7.14,4.217-11.775,10.207-14.163,18.293c-2.295,8.154-1.361,15.818,2.865,23.388c4.137,7.482,10.195,12.297,18.528,14.729   c7.471,2.115,14.572,1.496,21.683-1.907c0.446-0.224,0.927-0.492,1.377-0.772c0.05-0.031,0.101-0.062,0.152-0.09   c7.595-4.192,12.422-10.227,14.758-18.448c2.307-8.257,1.404-15.961-2.765-23.538c-0.473-0.856-0.984-1.685-1.521-2.461   c-2.609-3.808-5.857-6.833-9.663-9.003c-1.595-0.91-2.15-2.94-1.241-4.535c0.91-1.595,2.94-2.15,4.536-1.241   c4.687,2.672,8.672,6.376,11.846,11.009c0.655,0.947,1.287,1.969,1.868,3.023c4.981,9.054,6.104,18.659,3.341,28.55   c-2.802,9.862-8.813,17.402-17.869,22.425c-0.604,0.373-1.241,0.728-1.896,1.055C410.156,94.952,404.755,96.216,399.283,96.216z    M399.3,60.375c-1.836,0-3.325-1.489-3.325-3.325v-39.2c0-1.836,1.489-3.325,3.325-3.325s3.325,1.489,3.325,3.325v39.2   C402.625,58.886,401.136,60.375,399.3,60.375z"></path></g><g><path fill="#FFFFFF" d="M416.15,366.476H358.2c-1.836,0-3.325-1.489-3.325-3.325V320.05c0-1.836,1.489-3.325,3.325-3.325h12.55   c1.836,0,3.325,1.489,3.325,3.325s-1.489,3.325-3.325,3.325h-9.225v36.45h51.3v-36.45h-8.775c-1.836,0-3.325-1.489-3.325-3.325   s1.489-3.325,3.325-3.325h12.101c1.836,0,3.325,1.489,3.325,3.325v43.101C419.476,364.986,417.986,366.476,416.15,366.476z    M382.446,343.575c-1.651,0-3.084-1.229-3.295-2.91c-0.117-0.931-0.177-1.928-0.177-2.965c0-3.752,0.479-7.367,1.423-10.745   c1.734-6.538,5.221-12.476,10.351-17.606c7.82-7.783,17.22-11.726,27.944-11.726c0.146,0,0.293,0.001,0.44,0.002   c3.275-0.055,6.421,0.261,9.435,0.938l-3.54-6.528c-0.875-1.614-0.276-3.633,1.338-4.508c1.614-0.878,3.631-0.276,4.508,1.338   l7.696,14.192c0.399,0.731,0.495,1.55,0.328,2.307c-0.048,0.222-0.119,0.438-0.213,0.646c-0.24,0.537-0.625,1.016-1.136,1.37   c-0.095,0.065-0.191,0.125-0.291,0.181l-12.364,7.029c-1.598,0.908-3.628,0.349-4.534-1.247c-0.907-1.597-0.349-3.627,1.247-4.534   l6.278-3.569c-2.746-0.692-5.67-1.007-8.73-0.966c-0.129-0.001-0.259-0.002-0.387-0.002c-9.105,0-16.71,3.203-23.322,9.784   c-4.285,4.285-7.191,9.215-8.632,14.646c-0.793,2.838-1.188,5.852-1.188,8.998c0,0.76,0.042,1.479,0.124,2.135   c0.229,1.822-1.062,3.485-2.884,3.714C382.725,343.566,382.584,343.575,382.446,343.575z"></path></g><g><path fill="#FFFFFF" d="M548.451,390.625c-1.045,0-2.054-0.493-2.691-1.372c-0.854-1.175-0.845-2.769,0.021-3.936   c4.442-5.983,6.694-13.172,6.694-21.367c0-1.635-0.084-3.232-0.252-4.775H496.3c-1.836,0-3.325-1.489-3.325-3.325v-57.8   c0-1.836,1.489-3.325,3.325-3.325h89.5c1.836,0,3.325,1.489,3.325,3.325v57.8c0,1.836-1.489,3.325-3.325,3.325h-12.126   c-1.161,7.99-4.387,15.077-9.612,21.103c-4.234,4.93-9.134,8.356-14.554,10.175C549.16,390.568,548.804,390.625,548.451,390.625z    M499.625,352.524H555.1c1.606,0,2.984,1.149,3.271,2.73c0.5,2.751,0.754,5.677,0.754,8.695c0,5.068-0.742,9.825-2.217,14.236   c0.725-0.701,1.432-1.452,2.119-2.254c5.012-5.779,7.742-12.429,8.357-20.341c0.135-1.731,1.579-3.067,3.315-3.067h11.774v-51.149   h-82.85V352.524z"></path></g><g><path fill="#FFFFFF" d="M3.55,462.675h-72.2c-1.836,0-3.325-1.489-3.325-3.325V387.3c0-1.836,1.489-3.325,3.325-3.325h37.75   c1.836,0,3.325,1.489,3.325,3.325s-1.489,3.325-3.325,3.325h-34.425v65.399H0.225V423.7c0-1.836,1.489-3.325,3.325-3.325   s3.325,1.489,3.325,3.325v35.649C6.875,461.186,5.386,462.675,3.55,462.675z M-38.254,435.476c-1.637,0-3.063-1.209-3.29-2.876   c-0.12-0.877-0.181-1.785-0.181-2.699c0-3.032,0.347-5.954,1.031-8.686c0.073-0.359,0.146-0.684,0.219-0.975   c1.59-5.993,4.724-11.342,9.324-15.941c7.196-7.16,15.814-10.724,25.688-10.624c2.679-0.045,5.286,0.176,7.785,0.672l-2.796-5.164   c-0.875-1.614-0.274-3.633,1.341-4.507c1.613-0.874,3.633-0.275,4.507,1.341l6.844,12.641c0.398,0.729,0.496,1.545,0.33,2.301   c-0.045,0.211-0.112,0.417-0.198,0.615c-0.238,0.55-0.625,1.039-1.144,1.401c-0.091,0.063-0.185,0.122-0.28,0.176l-11.065,6.381   c-1.592,0.914-3.625,0.371-4.542-1.22c-0.917-1.591-0.372-3.624,1.219-4.542l4.882-2.814c-2.172-0.464-4.467-0.676-6.861-0.631   c-8.219-0.054-15.053,2.75-21.015,8.683c-3.755,3.754-6.308,8.095-7.582,12.896c-0.044,0.177-0.099,0.425-0.154,0.701   c-0.011,0.055-0.023,0.109-0.037,0.163c-0.563,2.221-0.848,4.621-0.848,7.134c0,0.614,0.04,1.22,0.119,1.801   c0.249,1.819-1.025,3.495-2.845,3.744C-37.953,435.466-38.104,435.476-38.254,435.476z"></path></g><g><path fill="#FFFFFF" d="M-412.186-151.417c-1.179,0-2.298-0.377-3.287-1.107c-0.132-0.097-0.256-0.204-0.373-0.319   c-0.354-0.352-0.648-0.761-0.876-1.215c-0.053-0.105-0.1-0.213-0.142-0.323c-0.475-1.265-0.482-2.623-0.022-3.926   c1.181-3.578,2.4-7.219,3.637-10.861c0.286-0.858,0.685-1.678,1.178-2.419c0.001-0.002,0.002-0.004,0.004-0.006   c0.387-0.581,0.83-1.121,1.315-1.607c1.808-1.808,3.598-3.582,5.373-5.322l40.917-41.067l6.743-6.843c0,0,0.001-0.001,0.001-0.001   l0,0c0.003-0.003,0.006-0.006,0.01-0.01l7.548-7.598c1.656-1.695,3.351-2.063,4.478-2.069c1.68-0.002,3.222,0.701,4.632,2.111   l6.1,6.1c2.748,2.748,2.778,6.31,0.077,9.075l-7.569,7.62c-0.001,0.001-0.002,0.002-0.003,0.003l-6.746,6.796   c-0.002,0.002-0.004,0.004-0.006,0.006l-40.947,41.146c-1.741,1.741-3.493,3.526-5.212,5.312c-0.051,0.053-0.104,0.104-0.158,0.153   c-0.471,0.428-0.957,0.807-1.447,1.127c-0.816,0.593-1.718,1.03-2.682,1.298c-3.562,1.177-7.163,2.405-10.705,3.651   C-410.969-151.515-411.585-151.417-412.186-151.417z M-407.526-165.336c-0.715,2.116-1.423,4.228-2.125,6.337   c2.034-0.704,4.1-1.407,6.164-2.096C-404.66-162.955-406-164.362-407.526-165.336z M-403.734-170.805   c2.207,1.457,4.133,3.463,5.766,6.005c1.038-1.061,2.08-2.115,3.117-3.151l38.599-38.788l-5.838-5.81l-38.604,38.746   C-401.709-172.807-402.721-171.81-403.734-170.805z M-357.41-217.273l5.846,5.818l2.07-2.086l-5.839-5.839L-357.41-217.273z    M-350.656-224.108l5.848,5.848l5.031-5.064l-5.848-5.848L-350.656-224.108z"></path></g><g><path fill="#FFFFFF" d="M-507.902-150.224c-0.024,0-0.048,0-0.072,0h-11.476c-1.476,0-2.774-0.973-3.19-2.388l-8.246-27.938   c-0.001-0.004-0.002-0.008-0.003-0.012l-4.239-14.413c-0.033-0.109-0.061-0.221-0.083-0.333c0-0.001,0-0.002,0-0.002   c-0.025-0.126-0.042-0.252-0.052-0.379c-0.06-0.762,0.14-1.547,0.623-2.212c0.001-0.001,0.002-0.002,0.002-0.003   c0.009-0.013,0.019-0.025,0.028-0.038c0,0,0,0,0,0l16.597-22.246c0.627-0.841,1.616-1.337,2.665-1.337h35.5   c1.051,0,2.041,0.497,2.668,1.341l16.529,22.222c0.411,0.539,0.66,1.208,0.677,1.933c0.001,0.06,0.001,0.121-0.001,0.181   c-0.009,0.316-0.063,0.622-0.155,0.911l-4.207,14.305c-0.014,0.052-0.029,0.103-0.045,0.153l-4.257,14.354   c-0.013,0.046-0.026,0.092-0.041,0.137l-3.928,13.376c-0.416,1.416-1.715,2.388-3.19,2.388h-11.425   c-0.048,0.001-0.097,0.001-0.145,0h-20.46C-507.854-150.224-507.878-150.224-507.902-150.224z M-483.014-156.875h4.726l1.997-6.8   h-4.979L-483.014-156.875z M-495.375-156.875h5.496l1.744-6.8h-7.239V-156.875z M-505.32-156.875h3.295v-6.8h-5.039   L-505.32-156.875z M-516.961-156.875h4.776l-1.744-6.8h-5.028L-516.961-156.875z M-479.556-170.325h5.224l2.328-7.85h-5.521   L-479.556-170.325z M-495.375-170.325h8.95l2.03-7.85h-10.98V-170.325z M-508.775-170.325h6.75v-7.85h-8.78L-508.775-170.325z    M-520.918-170.325h5.273l-2.03-7.85h-5.571L-520.918-170.325z M-475.816-184.825h5.779l2.294-7.8h-6.075L-475.816-184.825z    M-495.375-184.825h12.694l1.998-7.8h-14.691V-184.825z M-512.528-184.825h10.502v-7.8h-12.527L-512.528-184.825z    M-525.212-184.825h5.814l-2.024-7.8h-6.084L-525.212-184.825z M-476.4-199.275h6.483l-11.604-15.6h-32.161l-11.639,15.6H-476.4z"></path></g><g><path fill="#FFFFFF" d="M-416.799-52.425c-0.865,0-1.715-0.338-2.352-0.974l-25.05-25.05c-0.624-0.624-0.974-1.469-0.974-2.351   s0.351-1.728,0.974-2.351l25.05-25.05c0.951-0.951,2.38-1.235,3.624-0.721c1.242,0.515,2.053,1.727,2.053,3.072v50.1   c0,1.345-0.81,2.557-2.053,3.072C-415.939-52.508-416.371-52.425-416.799-52.425z M-437.148-80.8l17.023,17.022v-34.045   L-437.148-80.8z M-454.35-52.675h-35.5c-4.888,0-7.925-3.037-7.925-7.925v-35.45c0-4.888,3.037-7.925,7.925-7.925h35.5   c4.857,0,7.875,3.037,7.875,7.925v35.45C-446.475-55.712-449.493-52.675-454.35-52.675z M-489.85-97.325   c-0.713,0-1.043,0.133-1.103,0.18c-0.039,0.052-0.172,0.382-0.172,1.095v35.45c0,0.713,0.133,1.043,0.18,1.103   c0.052,0.039,0.382,0.172,1.095,0.172h35.5c0.794,0,1.045-0.162,1.055-0.169l0,0c-0.003,0,0.17-0.263,0.17-1.106v-35.45   c0-0.843-0.173-1.105-0.181-1.117c0-0.003-0.181-0.158-1.044-0.158H-489.85z"></path></g><g><path fill="#FFFFFF" d="M-296.675-36.1c-3.667,0-7.26-1.732-10.676-5.149l-33.7-33.7c-2.288-2.38-3.424-5.191-3.424-8.401   l-0.1-27.538c0-0.036,0-0.071,0.001-0.106c0.091-3.208,1.26-6.003,3.476-8.31c2.328-2.328,5.174-3.53,8.508-3.62   c0.034-0.001,0.067-0.001,0.103-0.001l27.45,0.1c3.173,0,5.984,1.104,8.343,3.282c0.033,0.03,0.065,0.062,0.097,0.093l33.7,33.75   c3.404,3.384,5.134,6.965,5.135,10.637c0,3.688-1.748,7.295-5.193,10.721l-23.093,23.093C-289.419-37.837-293-36.1-296.675-36.1z    M-337.925-110.854l0.1,27.492c0,1.487,0.483,2.678,1.522,3.759l33.653,33.652c2.125,2.124,4.134,3.201,5.974,3.201   c1.832,0,3.82-1.072,5.91-3.187l23.114-23.114c2.151-2.139,3.238-4.159,3.238-6.011c0-1.836-1.07-3.831-3.181-5.929l-33.657-33.707   c-1.109-1.007-2.318-1.477-3.799-1.477l-27.407-0.1c-1.598,0.053-2.836,0.57-3.893,1.626   C-337.356-113.6-337.872-112.378-337.925-110.854z M-317.6-82.875c-3.844,0-7.181-1.411-9.919-4.192   c-2.751-2.751-4.156-6.083-4.156-9.883c0-3.887,1.417-7.23,4.212-9.938c2.699-2.699,6.03-4.087,9.863-4.087   c3.867,0,7.215,1.388,9.951,4.124c2.73,2.687,4.124,6.024,4.124,9.901c0,3.791-1.381,7.116-4.105,9.883   C-310.369-84.286-313.723-82.875-317.6-82.875z M-317.6-104.325c-2.062,0-3.714,0.691-5.199,2.176   c-1.531,1.484-2.226,3.124-2.226,5.199c0,2.028,0.707,3.68,2.226,5.199c1.501,1.524,3.147,2.226,5.199,2.226   c2.086,0,3.748-0.701,5.23-2.207c1.497-1.521,2.194-3.179,2.194-5.218c0-2.085-0.685-3.731-2.157-5.18   C-313.836-103.633-315.503-104.325-317.6-104.325z"></path></g><g><path fill="#FFFFFF" d="M-164.1-116.075h-71.8c-1.836,0-3.325-1.489-3.325-3.325s1.489-3.325,3.325-3.325h71.8   c1.836,0,3.325,1.489,3.325,3.325S-162.264-116.075-164.1-116.075z M-164.1-139.875h-71.8c-1.836,0-3.325-1.489-3.325-3.325   s1.489-3.325,3.325-3.325h71.8c1.836,0,3.325,1.489,3.325,3.325S-162.264-139.875-164.1-139.875z M-164.1-163.675h-71.8   c-1.836,0-3.325-1.489-3.325-3.325s1.489-3.325,3.325-3.325h71.8c1.836,0,3.325,1.489,3.325,3.325S-162.264-163.675-164.1-163.675z   "></path></g><g><path fill="#FFFFFF" d="M-442.65,311.425h-78.75c-1.836,0-3.325-1.489-3.325-3.325s1.489-3.325,3.325-3.325h78.75   c1.836,0,3.325,1.489,3.325,3.325S-440.813,311.425-442.65,311.425z M-518.201,302.026c-0.406,0-0.819-0.075-1.22-0.233   c-1.708-0.675-2.546-2.605-1.872-4.313l12.85-32.55c0.458-1.161,1.529-1.968,2.771-2.089c1.234-0.126,2.448,0.464,3.121,1.517   l8.421,13.146l11.509-27.681c0.462-1.112,1.489-1.887,2.685-2.026c1.196-0.135,2.374,0.378,3.08,1.354l9.039,12.496l9.813-24.069   l-3.249,1.078c-1.744,0.579-3.624-0.366-4.203-2.109c-0.578-1.743,0.366-3.625,2.109-4.203l10.028-3.325   c0.5-0.179,1.029-0.231,1.538-0.167c0.003,0.003,0.007,0.001,0.01,0.002c0.004,0,0.008,0.001,0.011,0.001   c0.003-0.001,0.007,0.001,0.011,0.002c0.04,0.005,0.08,0.012,0.12,0.019c0,0,0,0,0,0c0.005,0.001,0.009,0.002,0.013,0.002   c0.004,0.001,0.007,0,0.012,0.002c0.005,0.001,0.007,0,0.012,0.003c0.001,0,0.003,0,0.005,0.001   c0.787,0.147,1.521,0.578,2.038,1.261c0.031,0.041,0.061,0.082,0.089,0.123l5.287,7.581c1.051,1.507,0.681,3.579-0.825,4.63   c-1.505,1.048-3.579,0.681-4.629-0.825l-1.803-2.585l-12.491,30.638c-0.456,1.119-1.483,1.902-2.683,2.046   c-1.199,0.148-2.383-0.373-3.091-1.353l-9.067-12.535l-11.668,28.063c-0.475,1.143-1.546,1.928-2.779,2.036   c-1.237,0.096-2.424-0.478-3.091-1.52l-8.344-13.026l-10.463,26.504C-515.624,301.229-516.876,302.026-518.201,302.026z    M-184.95-8.125c-2.766,0-5.273-1.046-7.251-3.024c-1.946-1.946-2.974-4.437-2.974-7.201s1.028-5.255,2.974-7.201   c1.979-1.979,4.486-3.024,7.251-3.024c2.76,0,5.264,1.042,7.24,3.012c1.986,1.946,3.036,4.44,3.036,7.213   c0,2.781-1.056,5.281-3.053,7.23C-179.677-9.171-182.184-8.125-184.95-8.125z M-184.95-21.925c-1.019,0-1.805,0.332-2.549,1.076   c-0.709,0.71-1.026,1.48-1.026,2.499s0.316,1.789,1.026,2.5c0.744,0.744,1.53,1.075,2.548,1.075c1.019,0,1.805-0.332,2.549-1.076   c0.753-0.735,1.076-1.497,1.076-2.499s-0.323-1.764-1.047-2.47c-0.01-0.01-0.019-0.019-0.029-0.029   C-183.145-21.593-183.931-21.925-184.95-21.925z M-212.35-8.125c-2.766,0-5.273-1.046-7.251-3.024   c-1.946-1.945-2.974-4.436-2.974-7.201s1.028-5.256,2.974-7.201c1.978-1.978,4.485-3.024,7.251-3.024s5.273,1.046,7.251,3.024   c1.946,1.945,2.974,4.436,2.974,7.201s-1.028,5.256-2.974,7.201C-207.077-9.171-209.584-8.125-212.35-8.125z M-212.35-21.925   c-1.019,0-1.805,0.332-2.549,1.076c-0.709,0.71-1.026,1.48-1.026,2.499s0.316,1.79,1.026,2.499c0.744,0.744,1.53,1.076,2.549,1.076   s1.805-0.332,2.549-1.076c0.709-0.709,1.026-1.48,1.026-2.499s-0.316-1.789-1.026-2.499   C-210.545-21.593-211.332-21.925-212.35-21.925z M-176.85-29.625h-41.6c-1.362,0-2.586-0.831-3.089-2.096l-3.572-8.979   c-0.019-0.045-0.038-0.091-0.055-0.138l-3.843-9.607c-0.022-0.052-0.043-0.104-0.063-0.158l-3.821-9.676   c-0.404-1.024-0.275-2.181,0.344-3.091s1.648-1.455,2.749-1.455h48.25c1.836,0,3.325,1.489,3.325,3.325s-1.489,3.325-3.325,3.325   h-43.362l1.224,3.1h39.588c1.836,0,3.325,1.489,3.325,3.325s-1.489,3.325-3.325,3.325h-36.939l1.24,3.1h33.199   c1.836,0,3.325,1.489,3.325,3.325s-1.489,3.325-3.325,3.325h-30.549l0.955,2.399h36.707l8.799-37.632   c0.352-1.504,1.693-2.568,3.238-2.568h11.9c1.836,0,3.325,1.489,3.325,3.325s-1.489,3.325-3.325,3.325h-9.263l-8.799,37.631   C-173.964-30.689-175.305-29.625-176.85-29.625z"></path></g><g><path fill="#FFFFFF" d="M-650.55,116.375c-0.633,0-1.259-0.182-1.8-0.529c-0.746-0.48-1.269-1.239-1.453-2.106l-3.75-17.7   c-0.38-1.797,0.767-3.562,2.564-3.942c1.792-0.379,3.561,0.768,3.942,2.563l3.054,14.417l39.823-8.823   c1.795-0.398,3.569,0.735,3.965,2.526c0.397,1.793-0.734,3.568-2.527,3.966l-43.1,9.55   C-650.068,116.349-650.31,116.375-650.55,116.375z M-597.246,99.025c-0.188,0-0.379-0.016-0.571-0.049L-659.8,88.238   c-0.083-0.013-0.166-0.029-0.248-0.048l-0.656-0.131c-1.782-0.357-2.947-2.078-2.616-3.865l0.238-1.284   c0.005-0.031,0.011-0.063,0.017-0.094l6.839-39.139c0.152-0.87,0.643-1.643,1.366-2.149c0.722-0.507,1.615-0.708,2.486-0.553   l62.8,11.05c1.808,0.318,3.017,2.042,2.699,3.85l-7.1,40.4C-594.259,97.89-595.662,99.025-597.246,99.025z M-656.191,82.115   l56.241,9.742L-594,57.998l-56.248-9.896L-656.191,82.115z M-603.896,88.925c-0.214,0-0.431-0.021-0.648-0.063l-8.85-1.75   c-1.801-0.356-2.973-2.105-2.617-3.906c0.356-1.802,2.104-2.972,3.907-2.617l8.85,1.75c1.801,0.356,2.973,2.105,2.617,3.906   C-600.951,87.828-602.341,88.925-603.896,88.925z M-621.347,86.325c-0.22,0-0.443-0.021-0.668-0.067   c-1.799-0.367-2.96-2.123-2.593-3.922l1.155-5.667c-1.555,0.786-3.475,0.236-4.367-1.289c-0.928-1.585-0.395-3.621,1.19-4.549   l0.828-0.485c-0.139-0.151-0.266-0.319-0.378-0.501c-0.964-1.563-0.478-3.611,1.085-4.575l1.481-0.914   c-0.084-0.107-0.163-0.221-0.235-0.341c-0.947-1.573-0.439-3.616,1.134-4.563l4.9-2.95c1.563-0.943,3.597-0.445,4.551,1.112l3,4.9   c0.958,1.566,0.466,3.613-1.1,4.572c-0.133,0.082-0.271,0.153-0.411,0.214l0.891,1.515c0.931,1.583,0.403,3.62-1.18,4.552   c-0.117,0.068-0.237,0.13-0.358,0.183l0.456,0.658c1.045,1.51,0.668,3.581-0.841,4.626c-1.334,0.926-3.109,0.738-4.225-0.363   l-1.06,5.194C-618.414,85.239-619.799,86.325-621.347,86.325z M-630.296,84.226c-0.217,0-0.437-0.021-0.657-0.065l-19.95-4   c-1.8-0.36-2.967-2.113-2.606-3.913c0.361-1.801,2.115-2.973,3.914-2.606l19.95,4c1.8,0.36,2.967,2.113,2.606,3.913   C-627.356,83.134-628.745,84.226-630.296,84.226z M-639.33,71.972c-2.178,0-4.157-0.745-5.779-2.187   c-1.85-1.556-2.996-3.719-3.249-6.198c-0.15-1.138-0.062-2.328,0.273-3.443c0.354-1.162,0.942-2.276,1.753-3.326   c1.643-2.015,3.839-3.176,6.408-3.427c2.55-0.202,4.882,0.525,6.796,2.108c0.226,0.174,0.4,0.326,0.528,0.45   c1.687,1.596,2.642,3.656,2.767,5.964c0.229,2.558-0.526,4.904-2.188,6.795c-1.592,1.922-3.745,3.028-6.233,3.204   C-638.617,71.952-638.976,71.972-639.33,71.972z M-639.044,60.003c-0.094,0-0.19,0.004-0.29,0.012   c-0.764,0.075-1.316,0.356-1.79,0.938c-0.262,0.34-0.48,0.739-0.595,1.116c-0.061,0.201-0.073,0.451-0.034,0.751   c0.09,0.872,0.384,1.423,0.995,1.937c0.423,0.375,0.88,0.653,1.82,0.542c0.062-0.008,0.124-0.014,0.186-0.017   c0.708-0.044,1.179-0.285,1.626-0.834c0.031-0.037,0.062-0.074,0.094-0.11c0.483-0.542,0.649-1.081,0.573-1.862   c-0.006-0.059-0.01-0.117-0.013-0.176c-0.028-0.628-0.236-1.082-0.697-1.519c-0.051-0.039-0.131-0.102-0.173-0.137   C-637.866,60.201-638.388,60.003-639.044,60.003z"></path></g></svg>