<svg fill="#FFFFFF" xmlns="http://www.w3.org/2000/svg" xmlns:xlink="http://www.w3.org/1999/xlink" version="1.0" x="0px" y="0px" viewBox="0 0 100 100" enable-background="new 0 0 100 100" xml:space="preserve"><path d="M43.333,53.333l13.334-0.003c13.304,0,24.752-7.815,30.101-19.085c-1.155-2.695-2.624-5.218-4.316-7.569  C79.473,38.151,69.06,46.663,56.667,46.663l-13.334,0.004c-12.451,0-23.753,4.932-32.132,12.91c0.603,2.435,1.416,4.785,2.438,7.021  C20.96,58.474,31.536,53.333,43.333,53.333z"></path><path d="M89.353,43.008C82.109,53.274,70.183,60,56.667,60H43.333c-10.641,0-20.094,5.003-26.197,12.771  c1.309,1.885,2.77,3.655,4.375,5.286c4.827-6.875,12.803-11.39,21.822-11.39h13.334c12.979,0,24.727-5.336,33.193-13.92  C89.922,51.836,90,50.928,90,50C90,47.61,89.753,45.283,89.353,43.008z"></path><path d="M43.333,33.333c-12.061,0-23.277,3.607-32.695,9.756C10.244,45.339,10,47.637,10,50c0,0.573,0.062,1.133,0.088,1.699  C19.212,44.395,30.762,40,43.333,40l13.334-0.003c10.947,0,19.856-8.845,19.986-19.763c-2.041-1.83-4.264-3.457-6.653-4.838v4.598  c0,7.354-5.979,13.336-13.333,13.336L43.333,33.333z"></path><path d="M43.333,26.666l13.334-0.002c3.675,0,6.666-2.992,6.666-6.67v-7.67C59.157,10.846,54.685,10,50,10  c-16.328,0-30.352,9.801-36.565,23.831C22.438,29.283,32.575,26.666,43.333,26.666z"></path><path d="M56.667,73.333H43.333c-6.992,0-13.147,3.613-16.725,9.066C33.19,87.161,41.257,90,50,90  c17.425,0,32.204-11.159,37.688-26.706C78.938,69.587,68.242,73.333,56.667,73.333z"></path></svg>